# Blender 3.4.1
# www.blender.org
mtllib incomplete_puffin.mtl
o Cube
v 0.883232 1.157925 -0.925181
v 0.917697 -0.886713 -0.891937
v 0.945669 0.771447 0.806856
v 0.956813 -0.871530 0.912394
v 0.000000 1.229827 -1.000000
v 0.000000 0.843349 1.000000
v 0.000000 -1.000000 -1.000000
v 0.000000 -1.000000 1.000000
v 1.000000 0.000000 -0.911407
v 1.000000 0.000000 1.000000
v 1.000000 1.059603 0.196706
v 0.500000 -1.000000 1.000000
v 0.500000 1.192674 -1.000000
v 1.000000 -0.946249 0.058719
v 0.500000 0.806196 1.000000
v 0.500000 -1.000000 -1.000000
v 0.000000 0.000000 1.000000
v 0.000000 1.219945 0.196706
v 0.000000 0.000000 -1.000000
v 0.000000 -1.000000 0.000000
v 0.500000 1.182792 0.196706
v 1.188569 0.000000 0.189117
v 0.500000 -1.000000 0.000000
v 0.860020 -0.003116 -1.632254
v 0.777717 -0.711042 -1.524191
v 0.406814 0.999374 -1.632254
v 0.743253 0.999374 -1.557436
v 0.406814 -0.824329 -1.632254
v 0.000722 -0.824329 -1.632254
v 0.000722 -0.003116 -1.632254
v -0.001444 0.999361 -1.632240
v 0.406814 -0.003116 -1.632254
v 0.731679 0.521964 1.115621
v 0.742823 -0.763446 1.521967
v 0.000000 0.591597 1.609573
v 0.000000 -0.891916 1.609573
v 0.786010 -0.089674 1.609573
v 0.286010 -0.891916 1.609573
v 0.286010 0.591597 1.468971
v 0.000000 -0.219109 2.439728
v 0.286010 -0.219109 2.170927
v 0.849818 -0.941324 1.251216
v 0.393005 -1.069794 1.338822
v 0.000000 -1.069794 1.338822
v 1.043129 0.701156 -0.002811
v 1.113084 0.424164 0.215660
v 1.065325 0.692528 0.232454
v 1.088922 0.440988 -0.002914
v -0.883232 1.157925 -0.925181
v -0.917697 -0.886713 -0.891937
v -0.945669 0.771447 0.806856
v -0.956813 -0.871530 0.912394
v -1.000000 0.000000 -0.911407
v -1.000000 0.000000 1.000000
v -1.000000 1.059603 0.196706
v -0.500000 -1.000000 1.000000
v -0.500000 1.192674 -1.000000
v -1.000000 -0.946249 0.058719
v -0.500000 0.806196 1.000000
v -0.500000 -1.000000 -1.000000
v -0.500000 1.182792 0.196706
v -1.188569 0.000000 0.189117
v -0.500000 -1.000000 0.000000
v -0.860020 -0.003116 -1.632254
v -0.777717 -0.711042 -1.524191
v -0.406814 0.999374 -1.632254
v -0.743253 0.999374 -1.557436
v -0.406814 -0.824329 -1.632254
v -0.000722 -0.824329 -1.632254
v -0.000722 -0.003116 -1.632254
v 0.001444 0.999361 -1.632240
v -0.406814 -0.003116 -1.632254
v -0.731679 0.521964 1.115621
v -0.742823 -0.763446 1.521967
v -0.786010 -0.089674 1.609573
v -0.286010 -0.891916 1.609573
v -0.286010 0.591597 1.468971
v -0.286010 -0.219109 2.170927
v -0.849818 -0.941324 1.251216
v -0.393005 -1.069794 1.338822
v -1.043129 0.701156 -0.002811
v -1.113084 0.424164 0.215660
v -1.065325 0.692528 0.232454
v -1.088922 0.440988 -0.002914
vn 0.1882 -0.9812 0.0439
vn 0.9682 0.1475 0.2020
vn -0.0000 -0.9635 -0.2677
vn 0.9408 -0.0765 0.3303
vn 0.0741 0.9972 0.0082
vn 0.0671 0.9034 0.4235
vn 0.2324 0.8767 0.4212
vn 0.1728 0.9842 0.0372
vn 0.3209 -0.7284 0.6054
vn 0.1167 0.9030 0.4136
vn -1.0000 -0.0000 -0.0000
vn 0.9694 -0.1173 -0.2155
vn -1.0000 -0.0010 0.0008
vn 0.1052 0.9529 -0.2845
vn 0.9795 -0.1420 0.1428
vn 0.9815 -0.1370 -0.1336
vn 0.9826 0.1335 -0.1288
vn -0.0000 -1.0000 -0.0000
vn 0.1856 -0.9819 -0.0378
vn 0.0942 0.0426 -0.9946
vn 0.1401 -0.0773 -0.9871
vn -0.0000 -0.0000 -1.0000
vn 0.0387 0.9466 -0.3201
vn 0.9705 0.1110 -0.2141
vn -1.0000 -0.0000 -0.0011
vn 0.3400 -0.8881 -0.3094
vn 0.4615 0.6093 0.6448
vn 0.3105 -0.6833 0.6608
vn 0.5879 -0.3664 0.7212
vn 0.5657 0.5432 0.6204
vn 0.4585 0.6291 0.6277
vn -0.0000 -0.8358 0.5491
vn 0.8133 0.3089 0.4931
vn -0.0000 -0.9794 -0.2018
vn 0.2474 -0.9615 -0.1199
vn 0.9802 0.1764 -0.0902
vn -0.1882 -0.9812 0.0439
vn -0.9682 0.1475 0.2020
vn -0.9408 -0.0765 0.3303
vn -0.0741 0.9972 0.0082
vn -0.0671 0.9034 0.4235
vn -0.2324 0.8767 0.4212
vn -0.1728 0.9842 0.0372
vn -0.3209 -0.7284 0.6054
vn -0.1167 0.9030 0.4136
vn -0.9694 -0.1173 -0.2155
vn 1.0000 -0.0010 0.0008
vn -0.1052 0.9529 -0.2845
vn -0.9795 -0.1420 0.1428
vn -0.9815 -0.1370 -0.1336
vn -0.9826 0.1335 -0.1288
vn -0.1856 -0.9819 -0.0378
vn -0.0942 0.0426 -0.9946
vn -0.1401 -0.0773 -0.9871
vn -0.0387 0.9466 -0.3201
vn -0.9705 0.1110 -0.2141
vn 1.0000 -0.0000 -0.0011
vn -0.3400 -0.8881 -0.3094
vn -0.4615 0.6093 0.6448
vn -0.3105 -0.6833 0.6608
vn -0.5879 -0.3664 0.7212
vn -0.5657 0.5432 0.6204
vn -0.4585 0.6291 0.6277
vn -0.8133 0.3089 0.4931
vn -0.2474 -0.9615 -0.1199
vn -0.9802 0.1764 -0.0902
vt 0.625000 0.500000
vt 0.375000 0.500000
vt 0.625000 0.750000
vt 0.375000 0.750000
vt 0.000000 0.000000
vt 0.625000 0.375000
vt 0.000000 0.000000
vt 0.250000 0.500000
vt 0.000000 0.000000
vt 0.000000 0.000000
vt 0.250000 0.750000
vt 0.500000 0.500000
vt 0.500000 0.750000
vt 0.625000 0.625000
vt 0.312500 0.750000
vt 0.625000 0.437500
vt 0.375000 0.625000
vt 0.312500 0.375000
vt 0.312500 0.500000
vt 0.000000 0.000000
vt 0.312500 0.187500
vt 0.000000 0.000000
vt 0.250000 0.625000
vt 0.468750 0.406250
vt 0.500000 0.625000
vt 0.312500 0.625000
vt 0.500000 0.500000
vt 0.375000 0.500000
vt 0.625000 0.437500
vt 0.625000 0.500000
vt 0.375000 0.437500
vt 0.312500 0.500000
vt 0.250000 0.500000
vt 0.375000 0.375000
vt 0.000000 0.000000
vt 0.500000 0.375000
vt 0.000000 0.000000
vt 0.000000 0.000000
vt 0.625000 0.375000
vt 0.500000 0.437500
vt 0.625000 0.750000
vt 0.375000 0.750000
vt 0.000000 0.000000
vt 0.000000 0.000000
vt 0.250000 0.750000
vt 0.500000 0.750000
vt 0.312500 0.750000
vt 0.312500 0.375000
vt 0.000000 0.000000
vt 0.125000 0.375000
vt 0.312500 0.562500
vt 0.375000 0.750000
vt 0.312500 0.750000
vt 0.000000 0.000000
vt 0.250000 0.750000
vt 0.581115 0.598156
vt 0.550038 0.625000
vt 0.581697 0.625000
vt 0.550865 0.599703
vt 0.625000 0.500000
vt 0.375000 0.500000
vt 0.625000 0.750000
vt 0.375000 0.750000
vt 0.500000 0.500000
vt 0.500000 0.750000
vt 0.625000 0.625000
vt 0.312500 0.750000
vt 0.625000 0.437500
vt 0.375000 0.625000
vt 0.312500 0.375000
vt 0.312500 0.500000
vt 0.468750 0.406250
vt 0.500000 0.625000
vt 0.312500 0.625000
vt 0.500000 0.500000
vt 0.375000 0.500000
vt 0.625000 0.437500
vt 0.625000 0.500000
vt 0.375000 0.437500
vt 0.312500 0.500000
vt 0.250000 0.500000
vt 0.375000 0.375000
vt 0.000000 0.000000
vt 0.500000 0.375000
vt 0.000000 0.000000
vt 0.000000 0.000000
vt 0.625000 0.375000
vt 0.500000 0.437500
vt 0.625000 0.750000
vt 0.375000 0.750000
vt 0.500000 0.750000
vt 0.312500 0.750000
vt 0.312500 0.375000
vt 0.312500 0.562500
vt 0.375000 0.750000
vt 0.312500 0.750000
vt 0.581115 0.598156
vt 0.550038 0.625000
vt 0.581697 0.625000
vt 0.550865 0.599703
s 0
usemtl Material
f 23/26/1 14/17/1 4/4/1 12/15/1
f 22/25/2 46/57/2 47/58/2 11/14/2 3/3/2 10/13/2
f 16/19/3 7/8/3 29/33/3 28/32/3
f 4/4/4 10/13/4 37/46/4 34/42/4 42/52/4
f 21/24/5 13/16/5 5/6/5 18/21/5
f 15/18/6 21/24/6 18/21/6 6/7/6
f 3/3/7 11/14/7 21/24/7 15/18/7
f 11/14/8 1/1/8 13/16/8 21/24/8
f 43/53/9 42/52/9 34/42/9 38/47/9
f 15/18/10 6/7/10 35/43/10 39/48/10
f 6/7/11 17/20/11 40/49/11 35/43/11
f 9/12/12 2/2/12 25/28/12 24/27/12
f 19/22/13 5/5/13 31/38/13 30/37/13
f 13/16/14 1/1/14 27/30/14 26/29/14
f 14/17/15 22/25/15 10/13/15 4/4/15
f 2/2/16 9/12/16 22/25/16 14/17/16
f 9/12/17 1/1/17 11/14/17 47/58/17 45/56/17 48/59/17 46/57/17 22/25/17
f 20/23/18 23/26/18 12/15/18 8/11/18
f 7/8/18 16/19/18 23/26/18 20/23/18
f 16/19/19 2/2/19 14/17/19 23/26/19
f 32/40/20 26/29/20 27/30/20 24/27/20
f 28/31/21 32/40/21 24/27/21 25/28/21
f 29/34/22 30/36/22 32/40/22 28/31/22
f 30/36/22 31/39/22 26/29/22 32/40/22
f 5/6/23 13/16/23 26/29/23 31/39/23
f 1/1/24 9/12/24 24/27/24 27/30/24
f 7/9/25 19/22/25 30/37/25 29/35/25
f 2/2/26 16/19/26 28/32/26 25/28/26
f 41/51/27 39/48/27 35/43/27 40/50/27
f 38/47/28 41/51/28 40/50/28 36/45/28
f 34/42/29 37/46/29 41/51/29 38/47/29
f 37/46/30 33/41/30 39/48/30 41/51/30
f 17/20/11 8/10/11 44/54/11 36/44/11 40/49/11
f 3/3/31 15/18/31 39/48/31 33/41/31
f 44/55/32 43/53/32 38/47/32 36/45/32
f 10/13/33 3/3/33 33/41/33 37/46/33
f 8/11/34 12/15/34 43/53/34 44/55/34
f 12/15/35 4/4/35 42/52/35 43/53/35
f 46/57/36 48/59/36 45/56/36 47/58/36
f 63/74/37 56/67/37 52/63/37 58/69/37
f 62/73/38 54/65/38 51/62/38 55/66/38 83/99/38 82/98/38
f 60/71/3 68/80/3 69/81/3 7/8/3
f 52/63/39 79/95/39 74/90/39 75/91/39 54/65/39
f 61/72/40 18/21/40 5/6/40 57/68/40
f 59/70/41 6/7/41 18/21/41 61/72/41
f 51/62/42 59/70/42 61/72/42 55/66/42
f 55/66/43 61/72/43 57/68/43 49/60/43
f 80/96/44 76/92/44 74/90/44 79/95/44
f 59/70/45 77/93/45 35/43/45 6/7/45
f 53/64/46 64/75/46 65/76/46 50/61/46
f 19/22/47 70/85/47 71/86/47 5/5/47
f 57/68/48 66/77/48 67/78/48 49/60/48
f 58/69/49 52/63/49 54/65/49 62/73/49
f 50/61/50 58/69/50 62/73/50 53/64/50
f 53/64/51 62/73/51 82/98/51 84/100/51 81/97/51 83/99/51 55/66/51 49/60/51
f 20/23/18 8/11/18 56/67/18 63/74/18
f 7/8/18 20/23/18 63/74/18 60/71/18
f 60/71/52 63/74/52 58/69/52 50/61/52
f 72/88/53 64/75/53 67/78/53 66/77/53
f 68/79/54 65/76/54 64/75/54 72/88/54
f 69/82/22 68/79/22 72/88/22 70/84/22
f 70/84/22 72/88/22 66/77/22 71/87/22
f 5/6/55 71/87/55 66/77/55 57/68/55
f 49/60/56 67/78/56 64/75/56 53/64/56
f 7/9/57 69/83/57 70/85/57 19/22/57
f 50/61/58 65/76/58 68/80/58 60/71/58
f 78/94/59 40/50/59 35/43/59 77/93/59
f 76/92/60 36/45/60 40/50/60 78/94/60
f 74/90/61 76/92/61 78/94/61 75/91/61
f 75/91/62 78/94/62 77/93/62 73/89/62
f 51/62/63 73/89/63 77/93/63 59/70/63
f 44/55/32 36/45/32 76/92/32 80/96/32
f 54/65/64 75/91/64 73/89/64 51/62/64
f 8/11/34 44/55/34 80/96/34 56/67/34
f 56/67/65 80/96/65 79/95/65 52/63/65
f 82/98/66 83/99/66 81/97/66 84/100/66
