# Blender 3.4.1
# www.blender.org
mtllib uneven_floor.mtl
o Cube
v 1.183006 -1.041897 -3.014338
v 0.325666 -1.619710 -1.337991
v -0.304864 -0.783100 -0.786951
v 2.102452 -1.633982 0.169932
v -0.713116 -1.264378 -2.280518
v -1.076070 -1.614600 -2.449752
v -1.658270 -1.020883 -0.866498
v -1.076070 -1.614600 -0.449752
v -1.091073 -1.635468 -1.451643
v -0.377396 -1.607464 -1.892108
v 0.752142 -1.321112 -2.174401
v -1.367170 -1.317742 -0.658125
v 0.898794 -1.208541 -0.308510
v -0.894593 -1.439489 -2.365135
v -0.981567 -0.901991 -0.826724
v 0.446116 -0.889199 -1.901879
v 0.513191 -1.624291 -0.139910
v -1.185693 -1.142630 -1.573508
v 0.234945 -1.153137 -2.647428
v 1.211865 -1.617155 -0.582266
v -0.069037 -1.401192 -2.284384
v 0.825468 -1.264826 -1.241455
v 0.069057 -1.746402 -1.018497
v -1.210793 -1.392979 -1.532920
v -0.250917 -1.210250 -0.391211
v -0.390128 -0.941485 -1.760313
vn -0.2876 0.9318 -0.2216
vn -0.2439 0.5501 0.7987
vn -0.9335 0.0358 -0.3567
vn 0.0738 -0.9922 0.1006
vn 0.3617 0.9284 -0.0844
vn 0.1479 -0.8699 -0.4706
vn 0.2265 -0.9241 -0.3078
vn 0.6037 -0.2618 -0.7530
vn 0.0733 0.3713 -0.9256
vn 0.4621 0.7100 -0.5313
vn 0.5303 -0.5783 -0.6200
vn 0.7816 0.6160 -0.0986
vn -0.1034 -0.9944 0.0223
vn 0.0266 -0.9994 -0.0205
vn 0.1726 -0.9553 -0.2401
vn -0.6955 0.7185 0.0046
vn -0.7226 -0.6908 0.0252
vn -0.6907 -0.7205 -0.0615
vn -0.1844 0.2383 0.9535
vn -0.1631 0.4969 0.8523
vn -0.0539 0.6750 0.7359
vn -0.0874 0.9844 -0.1525
vn -0.2150 0.9382 -0.2712
vn -0.2550 0.8845 -0.3907
vn -0.1517 0.9521 -0.2654
vn -0.1349 0.4772 0.8684
vn -0.4968 0.7366 -0.4589
vn -0.0023 -0.9998 -0.0197
vn 0.4575 0.8599 0.2263
vn -0.0134 -0.9468 -0.3216
vn 0.1296 -0.9529 -0.2741
vn 0.0824 -0.9073 -0.4123
vn -0.1624 -0.7461 -0.6457
vn 0.7570 0.6460 -0.0985
vn 0.5785 -0.8157 0.0037
vn 0.8209 0.2612 0.5079
vn -0.0364 -0.9872 0.1556
vn -0.0443 -0.9899 -0.1348
vn 0.1934 -0.9553 -0.2235
vn -0.8189 -0.4992 -0.2832
vn -0.8747 -0.4707 -0.1159
vn -0.8319 -0.0066 -0.5549
vn -0.2496 0.3804 0.8905
vn -0.0655 0.4266 0.9021
vn -0.1591 0.6601 0.7342
vn -0.1630 0.9760 -0.1445
vn -0.1106 0.9463 -0.3037
vn -0.3069 0.8822 -0.3571
vt 0.627116 0.503100
vt 0.377159 0.503100
vt 0.627116 0.753057
vt 0.377159 0.753057
vt 0.627116 0.253144
vt 0.877073 0.503100
vt 0.127203 0.503100
vt 0.377159 0.253144
vt 0.877073 0.753057
vt 0.627116 1.003014
vt 0.627116 0.003187
vt 0.377159 0.003187
vt 0.127203 0.753057
vt 0.377159 1.003014
vt 0.127203 0.628079
vt 0.377159 0.128165
vt 0.377159 0.378122
vt 0.252181 0.503100
vt 0.502138 0.503100
vt 0.502138 0.003187
vt 0.502138 1.003014
vt 0.502138 0.753057
vt 0.502138 0.253144
vt 0.627116 0.878036
vt 0.752095 0.753057
vt 0.627116 0.628079
vt 0.252181 0.753057
vt 0.377159 0.878036
vt 0.627116 0.128165
vt 0.877073 0.628079
vt 0.627116 0.378122
vt 0.752095 0.503100
vt 0.377159 0.628079
vt 0.502138 0.378122
vt 0.502138 0.628079
vt 0.252181 0.628079
vt 0.502138 0.128165
vt 0.502138 0.878036
vt 0.752095 0.628079
s 0
usemtl Material
f 18/30/1 15/25/1 26/39/1
f 15/24/2 12/21/2 25/38/2
f 18/29/3 14/23/3 24/37/3
f 20/33/4 17/27/4 23/36/4
f 22/35/5 3/3/5 13/22/5
f 19/31/6 11/19/6 21/34/6
f 21/34/7 2/2/7 10/17/7
f 14/23/8 10/17/8 6/8/8
f 5/5/9 21/34/9 14/23/9
f 20/33/10 13/22/10 4/4/10
f 2/2/11 22/35/11 20/33/11
f 11/19/12 16/26/12 22/35/12
f 23/36/13 8/13/13 9/15/13
f 10/18/14 9/15/14 6/7/14
f 2/2/15 23/36/15 10/18/15
f 9/16/16 14/23/16 6/8/16
f 12/20/17 9/16/17 8/12/17
f 7/11/18 24/37/18 12/20/18
f 25/38/19 8/14/19 17/28/19
f 13/22/20 17/28/20 4/4/20
f 3/3/21 25/38/21 13/22/21
f 26/39/22 3/3/22 16/26/22
f 19/32/23 16/26/23 1/1/23
f 5/6/24 26/39/24 19/32/24
f 18/30/25 7/9/25 15/25/25
f 15/24/26 7/10/26 12/21/26
f 18/29/27 5/5/27 14/23/27
f 20/33/28 4/4/28 17/27/28
f 22/35/29 16/26/29 3/3/29
f 19/31/30 1/1/30 11/19/30
f 21/34/31 11/19/31 2/2/31
f 14/23/32 21/34/32 10/17/32
f 5/5/33 19/31/33 21/34/33
f 20/33/34 22/35/34 13/22/34
f 2/2/35 11/19/35 22/35/35
f 11/19/36 1/1/36 16/26/36
f 23/36/37 17/27/37 8/13/37
f 10/18/38 23/36/38 9/15/38
f 2/2/39 20/33/39 23/36/39
f 9/16/40 24/37/40 14/23/40
f 12/20/41 24/37/41 9/16/41
f 7/11/42 18/29/42 24/37/42
f 25/38/43 12/21/43 8/14/43
f 13/22/44 25/38/44 17/28/44
f 3/3/45 15/24/45 25/38/45
f 26/39/46 15/25/46 3/3/46
f 19/32/47 26/39/47 16/26/47
f 5/6/48 18/30/48 26/39/48
